<?xml version="1.0" encoding="UTF-8"?>
<svg xmlns="http://www.w3.org/2000/svg" viewBox="0 0 512 512">
  <path fill="#264DE4" d="M71.357,460.819L30.272,0h451.456l-41.129,460.746L255.724,512"/>
  <path fill="#2965F1" d="M405.388,431.408l35.148-393.73H256v435.146"/>
  <path fill="#EBEBEB" d="M124.46,208.59l5.065-56.68H256v-55.77H256H114.287l1.32,14.82l13.538,151.63H256v-55.77H124.46z M142.149,355.29l-8.186-91.91H256v-55.77h-0.069H129.438l1.32,14.82l13.538,151.63H256v-55.77h-0.069"/>
  <path fill="#FFF" d="M255.931,208.59v55.77h68.875l-6.498,72.86l-62.377,16.89v58.38l114.726-31.8l0.84-9.41l13.128-147.71l1.369-14.82h-14.809H255.931z M255.931,96.14v55.77h135.098l1.123-12.58l2.541-28.37l1.32-14.82H255.931z"/>
</svg>
