<?xml version="1.0" encoding="UTF-8"?>
<svg xmlns="http://www.w3.org/2000/svg" viewBox="0 0 512 512">
  <rect width="512" height="512" fill="#F7DF1E"/>
  <path d="M324.4,370.8c5.9,9.6,13.6,16.7,27.1,16.7c11.4,0,18.7-5.7,18.7-13.5c0-9.4-7.4-12.7-19.9-18.2l-6.8-2.9c-19.7-8.4-32.8-18.9-32.8-41.2c0-20.5,15.6-36.1,40.1-36.1c17.4,0,29.9,6.1,38.9,21.9l-21.3,13.7c-4.7-8.4-9.8-11.7-17.6-11.7c-8,0-13.1,5.1-13.1,11.7c0,8.2,5.1,11.5,16.8,16.6l6.8,2.9c23.2,9.9,36.3,20.1,36.3,42.9c0,24.6-19.3,38.1-45.3,38.1c-25.4,0-41.8-12.1-49.8-27.9L324.4,370.8z M217.7,373.1c4.3,7.6,8.2,14.1,17.6,14.1c9,0,14.7-3.5,14.7-17.2V276.7h27.5v93.9c0,28.5-16.7,41.5-41.1,41.5c-22.1,0-34.9-11.4-41.4-25.2L217.7,373.1z"/>
</svg>
