<?xml version="1.0" encoding="UTF-8"?>
<svg xmlns="http://www.w3.org/2000/svg" viewBox="0 0 512 512">
  <path fill="#FFD43B" d="M254.5,262.9c-13.2,0-24,1.1-34.3,2.9c-30.4,5.3-35.9,16.3-35.9,36.7v26.9h71.8v9.1h-71.8H153.5c-20.5,0-38.4,12.3-44,35.7c-6.4,27-6.7,43.9,0,72.1c5,21,16.9,35.7,37.4,35.7h24.2v-32.2c0-23.3,20.1-43.8,44-43.8h71.7c19.6,0,35.9-16.1,35.9-35.8v-67.1c0-19.1-16.1-33.4-35.9-36.7C276.4,264,267.7,262.9,254.5,262.9z M220.2,282.7c7.4,0,13.5,6.1,13.5,13.7c0,7.5-6,13.6-13.5,13.6c-7.4,0-13.5-6.1-13.5-13.6C206.7,288.8,212.8,282.7,220.2,282.7z"/>
  <path fill="#3776AB" d="M257.5,249.1c13.2,0,24-1.1,34.3-2.9c30.4-5.3,35.9-16.3,35.9-36.7v-26.9h-71.8v-9.1h71.8h31.8c20.5,0,38.4-12.3,44-35.7c6.4-27,6.7-43.9,0-72.1c-5-21-16.9-35.7-37.4-35.7h-24.2v32.2c0,23.3-20.1,43.8-44,43.8h-71.7c-19.6,0-35.9,16.1-35.9,35.8v67.1c0,19.1,16.1,33.4,35.9,36.7C235.6,248,244.3,249.1,257.5,249.1z M291.8,229.3c-7.4,0-13.5-6.1-13.5-13.7c0-7.5,6-13.6,13.5-13.6c7.4,0,13.5,6.1,13.5,13.6C305.3,223.2,299.2,229.3,291.8,229.3z"/>
</svg>
